name ./resultDataOpenSim/trcMotMarkerGrf/sub09/grf-12-04.mot
datacolumns 19
datarows 22
range 1.44000000 1.52400000
endheader

                time	     ground_force_vx	     ground_force_vy	     ground_force_vz	     ground_force_px	     ground_force_py	     ground_force_pz	   l_ground_force_vx	   l_ground_force_vy	   l_ground_force_vz	   l_ground_force_px	   l_ground_force_py	   l_ground_force_pz	     ground_torque_x	     ground_torque_y	     ground_torque_z	   l_ground_torque_x	   l_ground_torque_y	   l_ground_torque_z	
          1.44000000	        -34.68515094	        446.52077309	         -1.35773333	          1.09864089	          0.00000000	          0.02862177	          0.00000000	          0.00000000	          0.00000000	          0.00000000	          0.00000000	          0.00000000	          0.00000000	          0.24088813	          0.00000000	          0.00000000	          0.00000000	          0.00000000	
          1.44400000	        -37.01528712	        444.69159694	         -0.28513098	          1.09955170	          0.00000000	          0.02860991	          0.00000000	          0.00000000	          0.00000000	          0.00000000	          0.00000000	          0.00000000	          0.00000000	          0.50554804	          0.00000000	          0.00000000	          0.00000000	          0.00000000	
          1.44800000	        -37.88012273	        442.97263756	         -0.05274728	          1.10021282	          0.00000000	          0.02865521	          0.00000000	          0.00000000	          0.00000000	          0.00000000	          0.00000000	          0.00000000	          0.00000000	          0.66768692	          0.00000000	          0.00000000	          0.00000000	          0.00000000	
          1.45200000	        -36.65745923	        441.33582236	         -0.73587273	          1.10052532	          0.00000000	          0.02876128	          0.00000000	          0.00000000	          0.00000000	          0.00000000	          0.00000000	          0.00000000	          0.00000000	          0.70886736	          0.00000000	          0.00000000	          0.00000000	          0.00000000	
          1.45600000	        -33.32494795	        439.78415950	         -2.23949787	          1.10049418	          0.00000000	          0.02891856	          0.00000000	          0.00000000	          0.00000000	          0.00000000	          0.00000000	          0.00000000	          0.00000000	          0.63630722	          0.00000000	          0.00000000	          0.00000000	          0.00000000	
          1.46000000	        -28.43167613	        438.32996061	         -4.32604168	          1.10022016	          0.00000000	          0.02910801	          0.00000000	          0.00000000	          0.00000000	          0.00000000	          0.00000000	          0.00000000	          0.00000000	          0.47945188	          0.00000000	          0.00000000	          0.00000000	          0.00000000	
          1.46400000	        -22.92207574	        436.99895829	         -6.66686640	          1.09984813	          0.00000000	          0.02930669	          0.00000000	          0.00000000	          0.00000000	          0.00000000	          0.00000000	          0.00000000	          0.00000000	          0.28220250	          0.00000000	          0.00000000	          0.00000000	          0.00000000	
          1.46800000	        -17.86839732	        435.84627968	         -8.90027173	          1.09953093	          0.00000000	          0.02949086	          0.00000000	          0.00000000	          0.00000000	          0.00000000	          0.00000000	          0.00000000	          0.00000000	          0.09384497	          0.00000000	          0.00000000	          0.00000000	          0.00000000	
          1.47200000	        -14.18234000	        434.95639437	        -10.68659452	          1.09939689	          0.00000000	          0.02963327	          0.00000000	          0.00000000	          0.00000000	          0.00000000	          0.00000000	          0.00000000	          0.00000000	         -0.03916867	          0.00000000	          0.00000000	          0.00000000	          0.00000000	
          1.47600000	        -12.38079316	        434.41545069	        -11.75813323	          1.09950846	          0.00000000	          0.02970410	          0.00000000	          0.00000000	          0.00000000	          0.00000000	          0.00000000	          0.00000000	          0.00000000	         -0.07999194	          0.00000000	          0.00000000	          0.00000000	          0.00000000	
          1.48000000	        -12.46946267	        434.27896234	        -11.95958453	          1.09987061	          0.00000000	          0.02969103	          0.00000000	          0.00000000	          0.00000000	          0.00000000	          0.00000000	          0.00000000	          0.00000000	         -0.00694116	          0.00000000	          0.00000000	          0.00000000	          0.00000000	
          1.48400000	        -13.96585171	        434.56348262	        -11.27105951	          1.10041249	          0.00000000	          0.02960718	          0.00000000	          0.00000000	          0.00000000	          0.00000000	          0.00000000	          0.00000000	          0.00000000	          0.18233910	          0.00000000	          0.00000000	          0.00000000	          0.00000000	
          1.48800000	        -16.04000331	        435.25402359	         -9.81194869	          1.10102329	          0.00000000	          0.02947770	          0.00000000	          0.00000000	          0.00000000	          0.00000000	          0.00000000	          0.00000000	          0.00000000	          0.46925202	          0.00000000	          0.00000000	          0.00000000	          0.00000000	
          1.49200000	        -17.73167562	        436.31716633	         -7.82926752	          1.10158693	          0.00000000	          0.02933393	          0.00000000	          0.00000000	          0.00000000	          0.00000000	          0.00000000	          0.00000000	          0.00000000	          0.81668286	          0.00000000	          0.00000000	          0.00000000	          0.00000000	
          1.49600000	        -18.19764329	        437.71997653	         -5.66382585	          1.10199108	          0.00000000	          0.02920789	          0.00000000	          0.00000000	          0.00000000	          0.00000000	          0.00000000	          0.00000000	          0.00000000	          1.17607632	          0.00000000	          0.00000000	          0.00000000	          0.00000000	
          1.50000000	        -16.93555366	        439.44621090	         -3.69155171	          1.10218315	          0.00000000	          0.02911816	          0.00000000	          0.00000000	          0.00000000	          0.00000000	          0.00000000	          0.00000000	          0.00000000	          1.49782017	          0.00000000	          0.00000000	          0.00000000	          0.00000000	
          1.50400000	        -13.91490836	        441.50960229	         -2.25587926	          1.10215332	          0.00000000	          0.02907791	          0.00000000	          0.00000000	          0.00000000	          0.00000000	          0.00000000	          0.00000000	          0.00000000	          1.74186105	          0.00000000	          0.00000000	          0.00000000	          0.00000000	
          1.50800000	         -9.56719046	        443.96164286	         -1.60647278	          1.10197054	          0.00000000	          0.02908721	          0.00000000	          0.00000000	          0.00000000	          0.00000000	          0.00000000	          0.00000000	          0.00000000	          1.88520000	          0.00000000	          0.00000000	          0.00000000	          0.00000000	
          1.51200000	         -4.63954994	        446.88659044	         -1.85681409	          1.10171750	          0.00000000	          0.02913183	          0.00000000	          0.00000000	          0.00000000	          0.00000000	          0.00000000	          0.00000000	          0.00000000	          1.92448665	          0.00000000	          0.00000000	          0.00000000	          0.00000000	
          1.51600000	          0.03810673	        450.38306411	         -2.97102609	          1.10147672	          0.00000000	          0.02919198	          0.00000000	          0.00000000	          0.00000000	          0.00000000	          0.00000000	          0.00000000	          0.00000000	          1.87429733	          0.00000000	          0.00000000	          0.00000000	          0.00000000	
          1.52000000	          3.78913293	        454.53377828	         -4.77412995	          1.10132416	          0.00000000	          0.02925358	          0.00000000	          0.00000000	          0.00000000	          0.00000000	          0.00000000	          0.00000000	          0.00000000	          1.76305288	          0.00000000	          0.00000000	          0.00000000	          0.00000000	
          1.52400000	          6.25643716	        459.37688791	         -6.97576706	          1.10128533	          0.00000000	          0.02931033	          0.00000000	          0.00000000	          0.00000000	          0.00000000	          0.00000000	          0.00000000	          0.00000000	          1.62815370	          0.00000000	          0.00000000	          0.00000000	          0.00000000	
